<svg width="39" height="45" viewBox="0 0 39 45" fill="none" xmlns="http://www.w3.org/2000/svg">
<path d="M17.2425 0.77617C22.4399 0.245912 27.3631 1.87783 31.1252 4.94052C34.8781 8.00321 37.4654 12.5058 37.9957 17.7261C38.526 22.9281 36.894 27.8559 33.8313 31.618C31.3492 34.6624 27.9208 36.9434 23.9302 37.981C23.6467 38.4153 23.345 38.8404 23.0159 39.2381C20.7349 42.0403 17.3842 43.9693 13.5079 44.367L13.3524 44.3853V44.3761C10.5274 44.6321 7.81673 44.0287 5.47628 42.7808C5.56313 42.6848 5.64541 42.5888 5.72769 42.4928C6.90249 41.0666 7.53788 39.1878 7.34589 37.2039C7.24076 36.0977 6.89335 35.0783 6.35852 34.187C6.33109 34.1413 6.30366 34.0955 6.27166 34.0498C5.98368 33.611 5.64541 33.1585 5.27515 32.6785C4.3472 31.4763 3.45124 30.3609 2.69243 29.0215C1.42621 26.7954 0.58968 24.2675 0.310838 21.5476C-0.21942 16.3456 1.41249 11.4179 4.47519 7.6558C7.52874 3.89372 12.0268 1.30643 17.2425 0.77617ZM22.6182 15.3674C21.5303 14.476 20.0949 14.0052 18.5819 14.1606C17.0825 14.3115 15.7797 15.0657 14.8883 16.1628C14.0015 17.2553 13.5261 18.6861 13.6816 20.2037C13.8324 21.7031 14.5867 23.0058 15.6837 23.8972C16.7717 24.784 18.207 25.2594 19.7201 25.104C21.2194 24.9486 22.5222 24.1944 23.4136 23.1018C24.3004 22.0139 24.7758 20.5785 24.6204 19.0609C24.465 17.5616 23.7153 16.2588 22.6182 15.3674ZM19.3041 31.8831C19.3224 31.8831 19.3407 31.8831 19.3498 31.8831C19.6881 31.8785 20.0355 31.8602 20.3783 31.8237C23.7519 31.4808 26.6592 29.8078 28.6339 27.3805C30.6132 24.9486 31.6692 21.7671 31.3263 18.4072C30.9835 15.0291 29.3104 12.1173 26.8877 10.1425C24.4604 8.15863 21.2789 7.10726 17.9236 7.4501C14.5501 7.79294 11.6428 9.46599 9.66806 11.8933C7.68873 14.3252 6.63736 17.5067 6.97563 20.8665C7.10819 22.1465 7.42817 23.3578 7.90815 24.4778C8.8041 26.5668 10.308 28.185 11.5788 30.1095C12.8542 31.9745 13.6861 34.1778 13.9147 36.5868C13.9467 36.9022 13.965 37.2131 13.9741 37.5194V37.5285C15.5009 37.1354 16.8128 36.2714 17.7728 35.1103C18.527 34.187 19.0618 33.0853 19.3041 31.8831Z" fill="#4D7EBF"/>
</svg>
